<?xml version="1.0" encoding="UTF-8"?>
<svg id="Layer_1" xmlns="http://www.w3.org/2000/svg" version="1.1" viewBox="0 0 512 512">
  <!-- Generator: Adobe Illustrator 29.8.1, SVG Export Plug-In . SVG Version: 2.1.1 Build 2)  -->
  <defs>
    <style>
      .st0 {
        fill: #fff;
        font-family: Arial-BoldMT, Arial;
        font-size: 148.66px;
        font-weight: 700;
      }

      .st0, .st1 {
        isolation: isolate;
      }

      .st2 {
        fill: #18b7e8;
      }

      .st3 {
        fill: none;
        stroke: #18b7e8;
        stroke-miterlimit: 10;
        stroke-width: 1.22px;
      }
    </style>
  </defs>
  <g id="Layer_2">
    <g id="FW_2">
      <g class="st1">
        <g class="st1">
          <text class="st0" transform="translate(310.77 326.1) scale(1.43 1)"><tspan x="0" y="0">X</tspan></text>
        </g>
      </g>
      <polygon class="st2" points="15.64 195.5 107.5 195.5 107.5 230.8 49.01 230.8 49.01 266.09 107.5 266.09 107.5 297.8 49.01 297.8 49.01 346.26 15.64 346.26 15.64 195.5"/>
      <polygon class="st2" points="140.29 196.23 141.14 345.76 232.98 345.23 232.78 309.97 174.32 310.27 173.67 196.04 140.29 196.23"/>
      <rect class="st3" x="265.79" y="196.04" width="229.96" height="149.73"/>
      <rect class="st2" x="462.35" y="195.5" width="33.38" height="150.76"/>
      <rect class="st2" x="265.79" y="195.5" width="33.38" height="150.76"/>
      <path class="st2" d="M284.43,112.41l57.27,66.97c1.07,1.26.93,3.15-.33,4.23h0c-1.26,1.07-3.15.93-4.23-.33l-57.27-66.97c-1.07-1.26-.93-3.15.33-4.23h0c1.26-1.07,3.15-.93,4.23.33Z"/>
      <path class="st2" d="M426.5,179.29l57.27-66.97c1.07-1.26,2.98-1.4,4.23-.33h0c1.26,1.07,1.4,2.98.33,4.23l-57.27,66.97c-1.07,1.26-2.98,1.4-4.23.33h0c-1.26-1.07-1.4-2.98-.33-4.23Z"/>
    </g>
  </g>
</svg>