<?xml version="1.0" encoding="UTF-8"?>
<svg id="Layer_1" xmlns="http://www.w3.org/2000/svg" version="1.1" viewBox="0 0 512 512">
  <!-- Generator: Adobe Illustrator 29.8.1, SVG Export Plug-In . SVG Version: 2.1.1 Build 2)  -->
  <defs>
    <style>
      .st0 {
        fill: none;
        stroke-width: 4.87px;
      }

      .st0, .st1, .st2 {
        stroke: #18b7e8;
        stroke-miterlimit: 10;
      }

      .st3 {
        fill: #18b7e8;
      }

      .st4, .st1, .st2 {
        fill: #fff;
      }

      .st1 {
        stroke-width: 2.76px;
      }

      .st2 {
        stroke-width: 3.28px;
      }
    </style>
  </defs>
  <g id="flixiface">
    <g>
      <g>
        <rect class="st3" x="35.62" y="218.45" width="66.39" height="258.18"/>
        <rect class="st3" x="407.73" y="218.45" width="66.39" height="258.18"/>
      </g>
      <path class="st1" d="M225.54,376.72c6.73-4.67,17.51,10.81,36.81,10.09,14.31-.54,20.43-9.51,24.63-6.26,6.13,4.74,1.74,30.51-14.28,38.79-17.53,9.04-42.81-6.04-48.68-23.77-1.88-5.7-3.08-15.64,1.53-18.86h0v.02Z"/>
      <path class="st2" d="M156.37,334.4c6.04,1.57,9.85-3.36,22.2-3.28,12.87.08,16.93,5.5,23.26,3.85,9.3-2.43,7.92-16.41,6.91-27.99-2.66-30.66-47.99-38.04-57.4-6.31-3.99,13.44-5.73,30.93,5.03,33.74h0Z"/>
      <path class="st2" d="M307.67,334.4c6.04,1.57,9.85-3.36,22.2-3.28,12.87.08,16.93,5.5,23.26,3.85,9.3-2.43,7.92-16.41,6.91-27.99-2.66-30.66-47.99-38.04-57.4-6.31-3.99,13.44-5.73,30.93,5.03,33.74h0Z"/>
      <circle class="st3" cx="178.87" cy="309.41" r="13.26"/>
      <circle class="st3" cx="332.6" cy="309.41" r="13.26"/>
      <circle class="st4" cx="330.16" cy="307.7" r="5.13"/>
      <circle class="st4" cx="177.37" cy="306.24" r="5.13"/>
      <ellipse class="st3" cx="165.61" cy="368.46" rx="21.92" ry="7.38"/>
      <ellipse class="st3" cx="346.38" cy="368.46" rx="21.92" ry="7.38"/>
      <path class="st3" d="M30.9,37.95l129.34,151.25c2.42,2.84,2.09,7.11-.75,9.56h0c-2.84,2.42-7.11,2.09-9.56-.75L20.61,46.77c-2.42-2.84-2.09-7.11.75-9.56h0c2.84-2.42,7.11-2.09,9.56.75h-.02Z"/>
      <path class="st3" d="M351.75,188.99L481.09,37.74c2.42-2.84,6.73-3.16,9.56-.75h0c2.84,2.42,3.16,6.73.75,9.56l-129.34,151.25c-2.42,2.84-6.73,3.16-9.56.75h0c-2.84-2.42-3.16-6.73-.75-9.56h0Z"/>
    </g>
  </g>
  <rect class="st0" x="36.75" y="218.45" width="438.51" height="258.18"/>
</svg>