<?xml version="1.0" encoding="UTF-8"?>
<svg id="Layer_3" xmlns="http://www.w3.org/2000/svg" version="1.1" viewBox="0 0 100 100">
  <!-- Generator: Adobe Illustrator 29.8.2, SVG Export Plug-In . SVG Version: 2.1.1 Build 3)  -->
  <defs>
    <style>
      .st0 {
        fill: #18b7e8;
      }
    </style>
  </defs>
  <path class="st0" d="M47.05,3.74c1.68-1.52,4.24-1.52,5.92,0l42.93,38.49c1.83,1.63,1.98,4.44.33,6.27-1.65,1.83-4.44,1.98-6.27.33l-1.48-1.33v37.99c0,6.53-5.31,11.84-11.84,11.84H23.35c-6.53,0-11.84-5.31-11.84-11.84v-37.99l-1.48,1.33c-1.83,1.63-4.63,1.48-6.27-.33s-1.48-4.63.33-6.27L47.05,3.74ZM50.02,13.01l-29.61,26.56v45.95c0,1.63,1.33,2.96,2.96,2.96h8.88v-19.25c0-7.37,5.96-13.32,13.32-13.32h8.88c7.37,0,13.32,5.96,13.32,13.32v19.25h8.88c1.63,0,2.96-1.33,2.96-2.96v-45.95l-29.61-26.54v-.02ZM41.13,88.47h17.77v-19.25c0-2.46-1.98-4.44-4.44-4.44h-8.88c-2.46,0-4.44,1.98-4.44,4.44v19.25Z"/>
</svg>