<?xml version="1.0" encoding="UTF-8"?>
<svg id="Layer_2" xmlns="http://www.w3.org/2000/svg" version="1.1" viewBox="0 0 100 100">
  <!-- Generator: Adobe Illustrator 29.8.2, SVG Export Plug-In . SVG Version: 2.1.1 Build 3)  -->
  <defs>
    <style>
      .st0 {
        fill: #18b7e8;
      }
    </style>
  </defs>
  <path class="st0" d="M50,97.4c26.18,0,47.4-21.22,47.4-47.4S76.18,2.6,50,2.6,2.6,23.82,2.6,50s21.22,47.4,47.4,47.4ZM44.07,32.22c0-3.28,2.65-5.93,5.93-5.93s5.93,2.65,5.93,5.93-2.65,5.93-5.93,5.93-5.93-2.65-5.93-5.93ZM42.59,44.07h8.89c2.46,0,4.44,1.98,4.44,4.44v16.29h1.48c2.46,0,4.44,1.98,4.44,4.44s-1.98,4.44-4.44,4.44h-14.81c-2.46,0-4.44-1.98-4.44-4.44s1.98-4.44,4.44-4.44h4.44v-11.85h-4.44c-2.46,0-4.44-1.98-4.44-4.44s1.98-4.44,4.44-4.44Z"/>
</svg>