<?xml version="1.0" encoding="UTF-8"?>
<svg id="Layer_2" xmlns="http://www.w3.org/2000/svg" version="1.1" viewBox="0 0 100 100">
  <!-- Generator: Adobe Illustrator 29.8.2, SVG Export Plug-In . SVG Version: 2.1.1 Build 3)  -->
  <defs>
    <style>
      .st0 {
        fill: red;
      }
    </style>
  </defs>
  <path class="st0" d="M72.75,17.42c-5.05,0-9.81,2.43-12.77,6.52l-6.37,8.81c-.83,1.15-2.17,1.83-3.59,1.83s-2.76-.68-3.59-1.83l-6.37-8.81c-2.96-4.09-7.72-6.52-12.77-6.52-8.7,0-15.75,7.05-15.75,15.75,0,9.24,5.92,18.22,12.61,26.34,7.61,9.26,16.92,17.4,23.31,22.27.59.44,1.46.78,2.59.78s2-.33,2.59-.78c6.39-4.87,15.7-13.03,23.31-22.27,6.7-8.13,12.61-17.11,12.61-26.34,0-8.7-7.05-15.75-15.75-15.75h-.06ZM52.78,18.73c4.63-6.41,12.07-10.2,19.98-10.2,13.61,0,24.64,11.03,24.64,24.64,0,12.7-7.94,23.86-14.64,31.99-8.16,9.92-18.01,18.53-24.77,23.68-2.28,1.74-5.09,2.61-7.98,2.61s-5.7-.87-7.98-2.61c-6.76-5.15-16.61-13.76-24.77-23.66-6.7-8.13-14.64-19.31-14.64-32.01,0-13.61,11.03-24.64,24.64-24.64,7.91,0,15.35,3.8,19.98,10.2l2.78,3.83,2.78-3.83h-.02Z"/>
</svg>