<?xml version="1.0" encoding="UTF-8"?>
<svg id="Layer_1" xmlns="http://www.w3.org/2000/svg" version="1.1" viewBox="0 0 512 512">
  <!-- Generator: Adobe Illustrator 29.8.1, SVG Export Plug-In . SVG Version: 2.1.1 Build 2)  -->
  <defs>
    <style>
      .st0 {
        fill: #18b7e8;
      }

      .st1 {
        fill: #fff;
      }

      .st2 {
        fill: none;
        stroke: #18b7e8;
        stroke-miterlimit: 10;
        stroke-width: 2.32px;
      }
    </style>
  </defs>
  <g id="Layer_2">
    <g id="Layer_21">
      <g id="FW_2">
        <rect class="st2" x="24.47" y="173.14" width="437.11" height="284.61"/>
        <rect class="st0" x="398.09" y="172.13" width="63.44" height="286.56"/>
        <rect class="st0" x="24.47" y="172.13" width="63.44" height="286.56"/>
        <path class="st0" d="M59.9,14.18l108.86,127.31c2.04,2.39,1.76,5.99-.63,8.06h0c-2.39,2.04-5.99,1.76-8.06-.63L51.21,21.6c-2.04-2.39-1.76-5.99.63-8.06h0c2.39-2.04,5.99-1.76,8.06.63Z"/>
        <path class="st0" d="M408.52,67.01l-69.89,81.73c-2.04,2.39-5.66,2.67-8.06.63h0c-2.39-2.04-2.67-5.66-.63-8.06l72.39-84.66"/>
        <path class="st0" d="M430.01,56.67l53.53,16.85c3,.94,4.67,4.17,3.73,7.16h0c-.94,3-4.17,4.67-7.16,3.73l-57.18-18.01"/>
      </g>
    </g>
  </g>
  <g id="Layer_3">
    <path class="st1" d="M179.61,417.04h149.42s60.13-91.71-88.2-88.2c-107.33,2.54-61.22,88.2-61.22,88.2Z"/>
  </g>
  <g id="Layer_4">
    <circle class="st1" cx="167.29" cy="255.81" r="29.05"/>
    <circle class="st1" cx="343.55" cy="253.65" r="29.05"/>
  </g>
  <g id="Layer_6">
    <path class="st0" d="M153.78,293.92c-2.26-.27-2.73,7.14-11.76,17.98-4.49,5.4-6.67,6.32-6.91,9.34-.63,7.71,12.35,17.98,18.68,15.3,10.07-4.27,5.03-42.05,0-42.64h0Z"/>
  </g>
  <circle class="st0" cx="343.55" cy="255.81" r="14.59"/>
  <circle class="st0" cx="167.29" cy="263.06" r="14.59"/>
</svg>