<?xml version="1.0" encoding="UTF-8"?>
<svg id="Layer_3" xmlns="http://www.w3.org/2000/svg" version="1.1" viewBox="0 0 100 100">
  <!-- Generator: Adobe Illustrator 29.8.2, SVG Export Plug-In . SVG Version: 2.1.1 Build 3)  -->
  <defs>
    <style>
      .st0 {
        fill: #18b7e8;
      }
    </style>
  </defs>
  <path class="st0" d="M76.04,42.18c0,7.47-2.42,14.37-6.51,19.97l20.6,20.62c2.03,2.03,2.03,5.34,0,7.37s-5.34,2.03-7.37,0l-20.6-20.62c-5.6,4.08-12.5,6.51-19.97,6.51-18.7,0-33.85-15.15-33.85-33.85S23.49,8.33,42.19,8.33s33.85,15.15,33.85,33.85ZM42.19,65.62c12.94,0,23.44-10.5,23.44-23.44s-10.5-23.44-23.44-23.44-23.44,10.5-23.44,23.44,10.5,23.44,23.44,23.44Z"/>
</svg>