<?xml version="1.0" encoding="UTF-8"?>
<svg id="Layer_3" xmlns="http://www.w3.org/2000/svg" version="1.1" viewBox="0 0 100 100">
  <!-- Generator: Adobe Illustrator 29.8.2, SVG Export Plug-In . SVG Version: 2.1.1 Build 3)  -->
  <defs>
    <style>
      .st0 {
        fill: #18b7e8;
      }
    </style>
  </defs>
  <path class="st0" d="M9.26,50.01c0-22.5,18.24-40.74,40.74-40.74s40.74,18.24,40.74,40.74-18.24,40.74-40.74,40.74S9.26,72.51,9.26,50.01ZM39.23,32.68c-1.21.67-1.96,1.96-1.96,3.33v28.01c0,1.38.75,2.66,1.96,3.33,1.21.67,2.67.65,3.87-.08l22.92-14c1.13-.7,1.83-1.93,1.83-3.26s-.7-2.56-1.83-3.26l-22.92-14c-1.18-.72-2.66-.75-3.87-.08v.03Z"/>
</svg>