<?xml version="1.0" encoding="UTF-8"?>
<svg id="Layer_2" xmlns="http://www.w3.org/2000/svg" version="1.1" viewBox="0 0 100 100">
  <!-- Generator: Adobe Illustrator 29.8.2, SVG Export Plug-In . SVG Version: 2.1.1 Build 3)  -->
  <defs>
    <style>
      .st0 {
        fill: #18b7e8;
      }
    </style>
  </defs>
  <path class="st0" d="M53.33,11.3c-.64-1.24-1.92-2.03-3.32-2.03s-2.68.79-3.32,2.03l-11.41,22.35-24.78,3.94c-1.38.22-2.53,1.19-2.96,2.53-.43,1.33-.08,2.79.9,3.78l17.73,17.75-3.91,24.78c-.22,1.38.36,2.77,1.49,3.6s2.62.95,3.88.31l22.38-11.38,22.37,11.38c1.24.64,2.74.51,3.88-.31,1.13-.82,1.71-2.2,1.49-3.6l-3.92-24.78,17.73-17.75c.99-.99,1.33-2.45.9-3.78-.43-1.33-1.57-2.31-2.96-2.53l-24.77-3.94-11.39-22.35Z"/>
</svg>